<?xml version="1.0" standalone="no"?>
<!DOCTYPE svg PUBLIC "-//W3C//DTD SVG 20010904//EN"
 "http://www.w3.org/TR/2001/REC-SVG-20010904/DTD/svg10.dtd">
<svg version="1.0" xmlns="http://www.w3.org/2000/svg"
 width="283" height="64" viewBox="0 0 283 64"
 preserveAspectRatio="xMidYMid meet">

<g transform="translate(0.000000,560.000000) scale(0.100000,-0.100000)"
fill="#000000" stroke="none">
<path d="M2455 5229 c-360 -49 -692 -225 -920 -486 -189 -216 -308 -464 -355
-740 -19 -111 -20 -172 -20 -1804 l0 -1689 72 -52 c39 -29 117 -81 172 -114
117 -72 113 -73 170 35 64 122 66 141 66 683 l0 487 53 15 c85 25 214 44 345
52 l122 7 0 183 0 182 -64 36 c-89 50 -221 156 -285 229 -30 34 -81 102 -113
152 l-58 90 2 620 3 619 105 38 c204 74 485 222 685 361 158 110 231 171 373
314 74 74 135 133 136 131 2 -2 13 -30 26 -63 41 -106 139 -287 207 -383 157
-220 421 -434 635 -515 26 -10 62 -35 82 -57 52 -58 66 -118 66 -284 -1 -159
-10 -214 -46 -269 -28 -43 -107 -97 -141 -97 -19 0 -23 -5 -23 -32 -1 -104
-75 -322 -158 -462 -83 -140 -261 -310 -414 -396 l-58 -32 0 -182 0 -182 158
-11 c86 -7 197 -21 245 -33 183 -42 369 -128 523 -240 l69 -50 3 1297 c2 1250
1 1302 -17 1414 -103 608 -560 1081 -1169 1209 -113 24 -368 34 -477 19z"/>
<path d="M2115 3834 c-108 -22 -138 -30 -192 -54 -67 -31 -163 -112 -163 -139
0 -21 19 -41 40 -41 9 0 33 18 54 39 83 85 267 137 402 114 36 -6 72 -9 80 -6
20 8 28 43 13 59 -24 22 -171 40 -234 28z"/>
<path d="M3001 3829 c-61 -10 -81 -23 -81 -50 0 -31 30 -39 103 -26 136 23
320 -29 403 -114 39 -40 61 -48 82 -27 22 22 12 45 -38 92 -107 100 -309 154
-469 125z"/>
<path d="M2075 3471 c-45 -20 -70 -60 -70 -112 0 -42 5 -53 33 -81 28 -28 39
-33 82 -33 43 0 54 5 82 33 28 28 33 39 33 82 0 42 -5 54 -31 81 -33 33 -92
46 -129 30z"/>
<path d="M3115 3471 c-45 -20 -70 -60 -70 -112 0 -42 5 -53 33 -81 28 -28 39
-33 82 -33 43 0 54 5 82 33 28 28 33 39 33 82 0 42 -5 54 -31 81 -33 33 -92
46 -129 30z"/>
<path d="M2370 2626 c-18 -23 -4 -81 30 -120 51 -58 118 -80 240 -80 88 0 113
4 158 23 62 28 109 77 118 126 13 73 -45 88 -80 20 -33 -63 -91 -90 -196 -90
-105 0 -163 27 -196 90 -22 43 -53 56 -74 31z"/>
</g>
</svg>
